<svg width="22" height="22" viewBox="0 0 22 22" fill="none" xmlns="http://www.w3.org/2000/svg">
<path d="M7.79199 11.458L14.2087 11.458" stroke="#222222" stroke-linecap="round"/>
<path d="M7.79199 14.208L11.4587 14.208" stroke="#222222" stroke-linecap="round"/>
<path d="M5.04199 5.60801C5.04199 4.76793 5.04199 4.34789 5.20548 4.02702C5.34929 3.74478 5.57876 3.51531 5.86101 3.3715C6.18187 3.20801 6.60191 3.20801 7.44199 3.20801H11.3812C11.7481 3.20801 11.9315 3.20801 12.1042 3.24945C12.2572 3.2862 12.4035 3.3468 12.5378 3.42905C12.6891 3.52181 12.8188 3.65152 13.0783 3.91095L16.2557 7.0884C16.5151 7.34782 16.6449 7.47754 16.7376 7.62891C16.8199 7.76312 16.8805 7.90944 16.9172 8.06249C16.9587 8.23512 16.9587 8.41857 16.9587 8.78545V16.3913C16.9587 17.2314 16.9587 17.6515 16.7952 17.9723C16.6514 18.2546 16.4219 18.484 16.1396 18.6279C15.8188 18.7913 15.3987 18.7913 14.5587 18.7913H7.442C6.60191 18.7913 6.18187 18.7913 5.86101 18.6279C5.57876 18.484 5.34929 18.2546 5.20548 17.9723C5.04199 17.6515 5.04199 17.2314 5.04199 16.3913V5.60801Z" stroke="#222222"/>
<path d="M11.458 3.20801V6.30801C11.458 7.14809 11.458 7.56813 11.6215 7.88899C11.7653 8.17124 11.9948 8.40071 12.277 8.54452C12.5979 8.70801 13.0179 8.70801 13.858 8.70801H16.958" stroke="#222222"/>
</svg>
