<svg width="26" height="26" viewBox="0 0 26 26" fill="none" xmlns="http://www.w3.org/2000/svg">
<g clip-path="url(#clip0_1_2388)">
<path d="M20.5833 3.25H5.41667C4.225 3.25 3.25 4.225 3.25 5.41667V20.5833C3.25 21.775 4.225 22.75 5.41667 22.75H20.5833C21.775 22.75 22.75 21.775 22.75 20.5833V5.41667C22.75 4.225 21.775 3.25 20.5833 3.25ZM20.5833 20.5833H5.41667V5.41667H20.5833V20.5833Z" fill="white"/>
<path d="M9.7487 13H7.58203V18.4167H9.7487V13Z" fill="white"/>
<path d="M18.4167 7.5835H16.25V18.4168H18.4167V7.5835Z" fill="white"/>
<path d="M14.0846 15.1665H11.918V18.4165H14.0846V15.1665Z" fill="white"/>
<path d="M14.0846 10.8335H11.918V13.0002H14.0846V10.8335Z" fill="white"/>
</g>
<defs>
<clipPath id="clip0_1_2388">
<rect width="26" height="26" fill="white"/>
</clipPath>
</defs>
</svg>
