<svg width="26" height="26" viewBox="0 0 26 26" fill="none" xmlns="http://www.w3.org/2000/svg">
<g clip-path="url(#clip0_1_33014)">
<path d="M20.5833 3.25H5.41667C4.225 3.25 3.25 4.225 3.25 5.41667V20.5833C3.25 21.775 4.225 22.75 5.41667 22.75H20.5833C21.775 22.75 22.75 21.775 22.75 20.5833V5.41667C22.75 4.225 21.775 3.25 20.5833 3.25ZM20.5833 20.5833H5.41667V5.41667H20.5833V20.5833Z" fill="#A7A7A7"/>
<path d="M9.74967 13H7.58301V18.4167H9.74967V13Z" fill="#A7A7A7"/>
<path d="M18.4167 7.58301H16.25V18.4163H18.4167V7.58301Z" fill="#A7A7A7"/>
<path d="M14.0837 15.167H11.917V18.417H14.0837V15.167Z" fill="#A7A7A7"/>
<path d="M14.0837 10.833H11.917V12.9997H14.0837V10.833Z" fill="#A7A7A7"/>
</g>
<defs>
<clipPath id="clip0_1_33014">
<rect width="26" height="26" fill="white"/>
</clipPath>
</defs>
</svg>
