<svg width="26" height="26" viewBox="0 0 26 26" fill="none" xmlns="http://www.w3.org/2000/svg">
<g clip-path="url(#clip0_1_33015)">
<path opacity="0.3" d="M5.41699 19.836L8.66699 18.5793V5.9043L5.41699 6.99846V19.836ZM17.3337 20.096L20.5837 19.0018V6.1643L17.3337 7.4318V20.096Z" fill="#A7A7A7"/>
<path d="M22.2083 3.25L22.035 3.2825L16.25 5.525L9.75 3.25L3.64 5.30833C3.4125 5.38417 3.25 5.57917 3.25 5.82833V22.2083C3.25 22.5117 3.48833 22.75 3.79167 22.75L3.965 22.7175L9.75 20.475L16.25 22.75L22.36 20.6917C22.5875 20.6158 22.75 20.4208 22.75 20.1717V3.79167C22.75 3.48833 22.5117 3.25 22.2083 3.25ZM8.66667 18.5792L5.41667 19.8358V6.99833L8.66667 5.90417V18.5792ZM15.1667 20.0742L10.8333 18.5575V5.92583L15.1667 7.4425V20.0742ZM20.5833 19.0017L17.3333 20.0958V7.43167L20.5833 6.175V19.0017Z" fill="#A7A7A7"/>
</g>
<defs>
<clipPath id="clip0_1_33015">
<rect width="26" height="26" fill="white"/>
</clipPath>
</defs>
</svg>
