<svg width="25" height="24" viewBox="0 0 25 24" fill="none" xmlns="http://www.w3.org/2000/svg">
<path d="M15.685 17.751L16.3802 17.0322L15.685 17.751ZM16.4098 18.5102L17.2817 18.0205L16.4098 18.5102ZM15.8241 19.9582L16.1103 20.9163L15.8241 19.9582ZM16.4098 5.48976L15.5379 5L16.4098 5.48976ZM15.8241 4.04183L16.1103 3.08366L15.8241 4.04183ZM14.2461 12C14.2461 10.0246 15.0631 8.24172 16.3802 6.9678L14.9898 5.5302C13.2991 7.16533 12.2461 9.46056 12.2461 12H14.2461ZM16.3802 17.0322C15.0631 15.7583 14.2461 13.9754 14.2461 12H12.2461C12.2461 14.5394 13.2991 16.8347 14.9898 18.4698L16.3802 17.0322ZM15.2461 19C11.3801 19 8.24609 15.866 8.24609 12H6.24609C6.24609 16.9706 10.2755 21 15.2461 21V19ZM8.24609 12C8.24609 8.13401 11.3801 5 15.2461 5V3C10.2755 3 6.24609 7.02944 6.24609 12H8.24609ZM14.9898 18.4698C15.2125 18.6852 15.3623 18.8303 15.4667 18.9377C15.518 18.9905 15.5473 19.0229 15.5629 19.0415C15.5817 19.0638 15.564 19.0463 15.5379 19L17.2817 18.0205C17.1735 17.828 17.0117 17.6578 16.901 17.5438C16.7697 17.4088 16.5929 17.238 16.3802 17.0322L14.9898 18.4698ZM15.2461 21C15.4822 21 15.7984 21.0095 16.1103 20.9163L15.5379 19C15.566 18.9916 15.5768 18.994 15.5344 18.9964C15.4793 18.9996 15.403 19 15.2461 19V21ZM15.5379 19L16.1103 20.9163C17.3384 20.5495 17.9094 19.1379 17.2817 18.0205L15.5379 19ZM16.3802 6.9678C16.5929 6.76203 16.7697 6.59121 16.901 6.45617C17.0117 6.34225 17.1735 6.17203 17.2817 5.97952L15.5379 5C15.564 4.95369 15.5817 4.93623 15.5629 4.95852C15.5473 4.97707 15.518 5.0095 15.4667 5.06226C15.3623 5.16969 15.2125 5.31477 14.9898 5.5302L16.3802 6.9678ZM15.2461 5C15.403 5 15.4793 5.00038 15.5344 5.00356C15.5768 5.00601 15.566 5.00838 15.5379 5L16.1103 3.08366C15.7984 2.9905 15.4822 3 15.2461 3V5ZM17.2817 5.97952C17.9094 4.86207 17.3384 3.45049 16.1103 3.08366L15.5379 5L17.2817 5.97952Z" fill="white"/>
</svg>
