<svg width="160" height="160" viewBox="0 0 160 160" fill="none" xmlns="http://www.w3.org/2000/svg">
<g opacity="0.7">
<circle cx="80" cy="80" r="80" fill="#393939"/>
<g clip-path="url(#clip0_15_34)">
<path d="M64 104L80 91.8L96 104L90 84.2L106 72.8H86.4L80 52L73.6 72.8H54L70 84.2L64 104ZM80 120C74.4667 120 69.2667 118.95 64.4 116.85C59.5333 114.75 55.3 111.9 51.7 108.3C48.1 104.7 45.25 100.467 43.15 95.6C41.05 90.7333 40 85.5333 40 80C40 74.4667 41.05 69.2667 43.15 64.4C45.25 59.5333 48.1 55.3 51.7 51.7C55.3 48.1 59.5333 45.25 64.4 43.15C69.2667 41.05 74.4667 40 80 40C85.5333 40 90.7333 41.05 95.6 43.15C100.467 45.25 104.7 48.1 108.3 51.7C111.9 55.3 114.75 59.5333 116.85 64.4C118.95 69.2667 120 74.4667 120 80C120 85.5333 118.95 90.7333 116.85 95.6C114.75 100.467 111.9 104.7 108.3 108.3C104.7 111.9 100.467 114.75 95.6 116.85C90.7333 118.95 85.5333 120 80 120ZM80 112C88.9333 112 96.5 108.9 102.7 102.7C108.9 96.5 112 88.9333 112 80C112 71.0667 108.9 63.5 102.7 57.3C96.5 51.1 88.9333 48 80 48C71.0667 48 63.5 51.1 57.3 57.3C51.1 63.5 48 71.0667 48 80C48 88.9333 51.1 96.5 57.3 102.7C63.5 108.9 71.0667 112 80 112Z" fill="white"/>
</g>
</g>
<defs>
<clipPath id="clip0_15_34">
<rect x="32" y="32" width="96" height="96" rx="48" fill="white"/>
</clipPath>
</defs>
</svg>
