<svg width="24" height="24" viewBox="0 0 24 24" fill="none" xmlns="http://www.w3.org/2000/svg">
<g clip-path="url(#clip0_1_2969)">
<path d="M19.4411 12.99L19.4311 13.01C19.4711 12.68 19.5111 12.34 19.5111 12C19.5111 11.66 19.4811 11.34 19.4411 11.01L19.4511 11.03L21.8911 9.11L19.4611 4.89L16.5911 6.05L16.6011 6.06C16.0811 5.66 15.5111 5.32 14.8911 5.06H14.9011L14.4411 2H9.57109L9.13109 5.07H9.14109C8.52109 5.33 7.95109 5.67 7.43109 6.07L7.44109 6.06L4.56109 4.89L2.12109 9.11L4.56109 11.03L4.57109 11.01C4.53109 11.34 4.50109 11.66 4.50109 12C4.50109 12.34 4.53109 12.68 4.58109 13.01L4.57109 12.99L2.47109 14.64L2.14109 14.9L4.57109 19.1L7.45109 17.95L7.43109 17.91C7.96109 18.32 8.53109 18.66 9.16109 18.92H9.13109L9.58109 22H14.4311C14.4311 22 14.4611 21.82 14.4911 21.58L14.8711 18.93H14.8611C15.4811 18.67 16.0611 18.33 16.5911 17.92L16.5711 17.96L19.4511 19.11L21.8811 14.91C21.8811 14.91 21.7411 14.79 21.5511 14.65L19.4411 12.99ZM12.0011 15.5C10.0711 15.5 8.50109 13.93 8.50109 12C8.50109 10.07 10.0711 8.5 12.0011 8.5C13.9311 8.5 15.5011 10.07 15.5011 12C15.5011 13.93 13.9311 15.5 12.0011 15.5Z" fill="#A7A7A7"/>
</g>
<defs>
<clipPath id="clip0_1_2969">
<rect width="24" height="24" fill="white"/>
</clipPath>
</defs>
</svg>
