<svg width="23" height="22" viewBox="0 0 23 22" fill="none" xmlns="http://www.w3.org/2000/svg">
<g clip-path="url(#clip0_1_2520)">
<path d="M6.35422 4.43641L4.70422 2.79557L3.41172 4.08807L5.05255 5.72891L6.35422 4.43641ZM1.07422 9.62474H3.82422V11.4581H1.07422V9.62474ZM10.2409 0.503906H12.0742V3.20807H10.2409V0.503906ZM17.6109 2.79099L18.9016 4.08074L17.2607 5.72157L15.971 4.43091L17.6109 2.79099ZM15.9609 16.6464L17.6017 18.2964L18.8942 17.0039L17.2442 15.3631L15.9609 16.6464ZM18.4909 9.62474H21.2409V11.4581H18.4909V9.62474ZM11.1576 5.04141C8.12339 5.04141 5.65755 7.50724 5.65755 10.5414C5.65755 13.5756 8.12339 16.0414 11.1576 16.0414C14.1917 16.0414 16.6576 13.5756 16.6576 10.5414C16.6576 7.50724 14.1917 5.04141 11.1576 5.04141ZM11.1576 14.2081C9.13172 14.2081 7.49089 12.5672 7.49089 10.5414C7.49089 8.51557 9.13172 6.87474 11.1576 6.87474C13.1834 6.87474 14.8242 8.51557 14.8242 10.5414C14.8242 12.5672 13.1834 14.2081 11.1576 14.2081ZM10.2409 17.8747H12.0742V20.5789H10.2409V17.8747ZM3.41172 16.9947L4.70422 18.2872L6.34505 16.6372L5.05255 15.3447L3.41172 16.9947Z" fill="#A7A7A7"/>
</g>
<defs>
<clipPath id="clip0_1_2520">
<rect width="22" height="22" fill="white" transform="translate(0.15625)"/>
</clipPath>
</defs>
</svg>
