<svg width="26" height="26" viewBox="0 0 26 26" fill="none" xmlns="http://www.w3.org/2000/svg">
<g clip-path="url(#clip0_1_2968)">
<path d="M11.918 19.5003H14.0846V17.3337H11.918V19.5003ZM13.0013 2.16699C7.0213 2.16699 2.16797 7.02033 2.16797 13.0003C2.16797 18.9803 7.0213 23.8337 13.0013 23.8337C18.9813 23.8337 23.8346 18.9803 23.8346 13.0003C23.8346 7.02033 18.9813 2.16699 13.0013 2.16699ZM13.0013 21.667C8.2238 21.667 4.33464 17.7778 4.33464 13.0003C4.33464 8.22283 8.2238 4.33366 13.0013 4.33366C17.7788 4.33366 21.668 8.22283 21.668 13.0003C21.668 17.7778 17.7788 21.667 13.0013 21.667ZM13.0013 6.50033C10.6071 6.50033 8.66797 8.43949 8.66797 10.8337H10.8346C10.8346 9.64199 11.8096 8.66699 13.0013 8.66699C14.193 8.66699 15.168 9.64199 15.168 10.8337C15.168 13.0003 11.918 12.7295 11.918 16.2503H14.0846C14.0846 13.8128 17.3346 13.542 17.3346 10.8337C17.3346 8.43949 15.3955 6.50033 13.0013 6.50033Z" fill="white"/>
</g>
<defs>
<clipPath id="clip0_1_2968">
<rect width="26" height="26" fill="white"/>
</clipPath>
</defs>
</svg>
