<svg width="15" height="15" viewBox="0 0 15 15" fill="none" xmlns="http://www.w3.org/2000/svg">
<path d="M6.25 9.375L6.25 7.5" stroke="#33363F" stroke-linecap="round"/>
<path d="M8.75 9.375L8.75 7.5" stroke="#33363F" stroke-linecap="round"/>
<path d="M1.875 4.375H13.125V4.375C12.0895 4.375 11.25 5.21447 11.25 6.25V8.75C11.25 10.3937 11.25 11.2156 10.796 11.7688C10.7129 11.8701 10.6201 11.9629 10.5188 12.046C9.96561 12.5 9.14374 12.5 7.5 12.5V12.5C5.85626 12.5 5.03439 12.5 4.48121 12.046C4.37995 11.9629 4.28709 11.8701 4.20398 11.7688C3.75 11.2156 3.75 10.3937 3.75 8.75V6.25C3.75 5.21447 2.91053 4.375 1.875 4.375V4.375Z" stroke="#33363F" stroke-linecap="round"/>
<path d="M6.29259 2.10662C6.36381 2.04017 6.52074 1.98146 6.73905 1.93958C6.95735 1.8977 7.22483 1.875 7.5 1.875C7.77517 1.875 8.04265 1.8977 8.26095 1.93958C8.47926 1.98145 8.63619 2.04017 8.70741 2.10662" stroke="#33363F" stroke-linecap="round"/>
</svg>
