<svg width="24" height="18" viewBox="0 0 24 18" fill="none" xmlns="http://www.w3.org/2000/svg">
<g clip-path="url(#clip0_1_2156)">
<path d="M16.8505 5.30914L18.2905 6.33581L13.4105 9.81507L10.1205 7.46942C9.73047 7.19137 9.10047 7.19137 8.71047 7.46942L2.71047 11.7543C2.32047 12.0324 2.32047 12.4816 2.71047 12.7596C3.10047 13.0377 3.73047 13.0377 4.12047 12.7596L9.41047 8.9809L12.7005 11.3266C13.0905 11.6046 13.7205 11.6046 14.1105 11.3266L19.7005 7.34822L21.1405 8.37488C21.4505 8.5959 21.9905 8.43905 21.9905 8.12535V5.05961C22.0005 4.85998 21.7805 4.70312 21.5005 4.70312H17.2105C16.7605 4.70312 16.5405 5.08812 16.8505 5.30914Z" fill="#FC6B6D"/>
</g>
<defs>
<clipPath id="clip0_1_2156">
<rect width="24" height="17.1111" fill="white" transform="translate(0 0.425781)"/>
</clipPath>
</defs>
</svg>
