<svg width="26" height="24" viewBox="0 0 26 24" fill="none" xmlns="http://www.w3.org/2000/svg">
<g clip-path="url(#clip0_1_3411)">
<path d="M17.7017 17.1497L19.1873 15.7097L14.1529 10.8297L10.7587 14.1197C10.3564 14.5097 9.70647 14.5097 9.30413 14.1197L3.11426 8.10973C2.71191 7.71973 2.71191 7.08973 3.11426 6.69973C3.5166 6.30973 4.16653 6.30973 4.56888 6.69973L10.0263 11.9997L13.4204 8.70973C13.8227 8.31973 14.4727 8.31973 14.875 8.70973L20.6419 14.2897L22.1275 12.8497C22.4473 12.5397 23.0044 12.7597 23.0044 13.1997V17.4897C23.0044 17.7697 22.7774 17.9897 22.4886 17.9897H18.0628C17.6089 17.9997 17.3819 17.4597 17.7017 17.1497Z" fill="#529B26"/>
</g>
<defs>
<clipPath id="clip0_1_3411">
<rect width="24.7595" height="24" fill="white" transform="translate(0.320312)"/>
</clipPath>
</defs>
</svg>
