<svg width="11" height="9" viewBox="0 0 11 9" fill="none" xmlns="http://www.w3.org/2000/svg">
<path d="M5.5 0.0332031C3 0.0332031 0.865 1.69187 0 4.0332C0.865 6.37454 3 8.0332 5.5 8.0332C8 8.0332 10.135 6.37454 11 4.0332C10.135 1.69187 8 0.0332031 5.5 0.0332031ZM5.5 6.69987C4.12 6.69987 3 5.5052 3 4.0332C3 2.5612 4.12 1.36654 5.5 1.36654C6.88 1.36654 8 2.5612 8 4.0332C8 5.5052 6.88 6.69987 5.5 6.69987ZM5.5 2.4332C4.67 2.4332 4 3.14787 4 4.0332C4 4.91854 4.67 5.6332 5.5 5.6332C6.33 5.6332 7 4.91854 7 4.0332C7 3.14787 6.33 2.4332 5.5 2.4332Z" fill="#A7A7A7"/>
</svg>
