<svg width="12" height="12" viewBox="0 0 12 12" fill="none" xmlns="http://www.w3.org/2000/svg">
<g clip-path="url(#clip0_1_32597)">
<path d="M6 3.5C7.38 3.5 8.5 4.62 8.5 6C8.5 6.325 8.435 6.63 8.32 6.915L9.78 8.375C10.535 7.745 11.13 6.93 11.495 6C10.63 3.805 8.495 2.25 5.995 2.25C5.295 2.25 4.625 2.375 4.005 2.6L5.085 3.68C5.37 3.565 5.675 3.5 6 3.5ZM1 2.135L2.14 3.275L2.37 3.505C1.54 4.15 0.89 5.01 0.5 6C1.365 8.195 3.5 9.75 6 9.75C6.775 9.75 7.515 9.6 8.19 9.33L8.4 9.54L9.865 11L10.5 10.365L1.635 1.5L1 2.135ZM3.765 4.9L4.54 5.675C4.515 5.78 4.5 5.89 4.5 6C4.5 6.83 5.17 7.5 6 7.5C6.11 7.5 6.22 7.485 6.325 7.46L7.1 8.235C6.765 8.4 6.395 8.5 6 8.5C4.62 8.5 3.5 7.38 3.5 6C3.5 5.605 3.6 5.235 3.765 4.9ZM5.92 4.51L7.495 6.085L7.505 6.005C7.505 5.175 6.835 4.505 6.005 4.505L5.92 4.51Z" fill="#A7A7A7"/>
</g>
<defs>
<clipPath id="clip0_1_32597">
<rect width="12" height="12" fill="white"/>
</clipPath>
</defs>
</svg>
